<mxfile host="app.diagrams.net" modified="2024-05-24T09:31:13.755Z" agent="Mozilla/5.0 (Windows NT 10.0; Win64; x64) AppleWebKit/537.36 (KHTML, like Gecko) Chrome/124.0.0.0 Safari/537.36" version="24.4.7" etag="y9BEiDyg_N5E66EITozC" type="github">
  <diagram name="Page-1" id="5-di0g7vuAtBxpB3fhkM">
    <mxGraphModel>
      <root>
        <mxCell id="0" />
        <mxCell id="1" parent="0" />
      </root>
    </mxGraphModel>
  </diagram>
</mxfile>
